# xmcd
#
# Track frame offsets: 
#        182
#        26732
#        54150
#        76020
#        94980
#        121387
#        139740
#        168477
#
# Disc length: 2628 seconds
#
# Revision: 0
# Processed by: cddbd v1.5.2PL0 Copyright (c) Steve Scherf et al.
# Submitted via: ExactAudioCopy v0.99pb4
#
DISCID=5f0a4208
DTITLE=Heaven and Earth - That's Love
DYEAR=1981
DGENRE=Soul
TTITLE0=That's Love
TTITLE1=I Really Love You
TTITLE2=He Don't Really Love You
TTITLE3=Just in Time
TTITLE4=You're a Blessing
TTITLE5=Where is the Laughter
TTITLE6=Kick It Out
TTITLE7=Give Love One More Chance
EXTD=
EXTT0=
EXTT1=
EXTT2=
EXTT3=
EXTT4=
EXTT5=
EXTT6=
EXTT7=
PLAYORDER=
